# 3ds Max Wavefront OBJ Exporter v0.97b - (c)2007 guruware
# File Created: 05.10.2021 20:58:45

mtllib nprism2.mtl

#
# object Cylinder001
#

v  31.5339 -15.1859 0.0000
v  21.8222 -27.3641 0.0000
v  7.7882 -34.1225 0.0000
v  -7.7882 -34.1225 0.0000
v  -21.8222 -27.3641 0.0000
v  -31.5339 -15.1859 0.0000
v  -35.0000 0.0000 0.0000
v  -31.5339 15.1859 0.0000
v  -21.8221 27.3641 0.0000
v  -7.7882 34.1225 0.0000
v  7.7882 34.1225 0.0000
v  21.8221 27.3641 0.0000
v  31.5339 15.1859 0.0000
v  35.0000 0.0000 0.0000
v  31.5339 15.1859 40.0000
v  35.0000 0.0000 40.0000
v  21.8221 27.3641 40.0000
v  7.7882 34.1225 40.0000
v  -7.7882 34.1225 40.0000
v  -21.8221 27.3641 40.0000
v  -31.5339 15.1859 40.0000
v  -35.0000 0.0000 40.0000
v  -31.5339 -15.1859 40.0000
v  -21.8222 -27.3641 40.0000
v  -7.7882 -34.1225 40.0000
v  7.7882 -34.1225 40.0000
v  21.8222 -27.3641 40.0000
v  31.5339 -15.1859 40.0000
# 28 vertices

vn 0.0000 0.0000 -1.0000
vn 1.0000 0.0000 0.0000
vn 0.9010 0.4339 0.0000
vn 0.6235 0.7818 0.0000
vn 0.2225 0.9749 0.0000
vn -0.2225 0.9749 0.0000
vn -0.6235 0.7818 0.0000
vn -0.9010 0.4339 0.0000
vn -1.0000 0.0000 0.0000
vn -0.9010 -0.4339 0.0000
vn -0.6235 -0.7818 0.0000
vn -0.2225 -0.9749 0.0000
vn 0.2225 -0.9749 0.0000
vn 0.6235 -0.7818 0.0000
vn 0.9010 -0.4339 0.0000
vn 0.0000 0.0000 1.0000
# 16 vertex normals

vt 0.3395 0.0000 -0.0000
vt 0.1647 0.0000 -0.4450
vt 0.0562 0.0000 -0.8019
vt 0.0357 0.0000 -1.0000
vt 0.1071 0.0000 -1.0000
vt 0.2564 0.0000 -0.8019
vt 0.4539 0.0000 -0.4450
vt 0.6605 0.0000 0.0000
vt 0.8353 0.0000 0.4450
vt 0.9438 0.0000 0.8019
vt 0.9643 0.0000 1.0000
vt 0.8929 0.0000 1.0000
vt 0.8214 0.0000 1.0000
vt 0.7500 0.0000 1.0000
vt 0.8214 1.0000 1.0000
vt 0.7500 1.0000 1.0000
vt 0.8929 1.0000 1.0000
vt 0.9643 1.0000 1.0000
vt -0.0357 0.0000 1.0000
vt 0.0357 0.0000 1.0000
vt 0.0357 1.0000 1.0000
vt -0.0357 1.0000 1.0000
vt 0.1071 0.0000 1.0000
vt 0.1071 1.0000 1.0000
vt 0.1786 0.0000 1.0000
vt 0.1786 1.0000 1.0000
vt 0.2500 0.0000 1.0000
vt 0.2500 1.0000 1.0000
vt 0.3214 0.0000 1.0000
vt 0.3214 1.0000 1.0000
vt 0.3929 0.0000 1.0000
vt 0.3929 1.0000 1.0000
vt 0.4643 0.0000 1.0000
vt 0.4643 1.0000 1.0000
vt 0.5357 0.0000 1.0000
vt 0.5357 1.0000 1.0000
vt 0.6071 0.0000 1.0000
vt 0.6071 1.0000 1.0000
vt 0.6786 0.0000 1.0000
vt 0.6786 1.0000 1.0000
vt 0.9438 1.0000 0.8019
vt 0.8353 1.0000 0.4450
vt 0.6605 1.0000 0.0000
vt 0.4539 1.0000 -0.4450
vt 0.2564 1.0000 -0.8019
vt 0.1071 1.0000 -1.0000
vt 0.0357 1.0000 -1.0000
vt 0.0562 1.0000 -0.8019
vt 0.1647 1.0000 -0.4450
# 49 texture coords

g Cylinder001
usemtl wire_177088027
s 1
f 1/1/1 2/2/1 3/3/1 4/4/1 5/5/1 6/6/1 7/7/1 8/8/1 9/9/1 10/10/1 11/11/1 12/12/1 13/13/1 14/14/1 
s 8
f 14/14/2 13/13/3 15/15/3 16/16/2 
f 13/13/3 12/12/4 17/17/4 15/15/3 
f 12/12/4 11/11/5 18/18/5 17/17/4 
f 11/19/5 10/20/6 19/21/6 18/22/5 
f 10/20/6 9/23/7 20/24/7 19/21/6 
f 9/23/7 8/25/8 21/26/8 20/24/7 
f 8/25/8 7/27/9 22/28/9 21/26/8 
f 7/27/9 6/29/10 23/30/10 22/28/9 
f 6/29/10 5/31/11 24/32/11 23/30/10 
f 5/31/11 4/33/12 25/34/12 24/32/11 
f 4/33/12 3/35/13 26/36/13 25/34/12 
f 3/35/13 2/37/14 27/38/14 26/36/13 
f 2/37/14 1/39/15 28/40/15 27/38/14 
f 1/39/15 14/14/2 16/16/2 28/40/15 
s 1
f 28/40/16 16/16/16 15/15/16 17/17/16 18/18/16 19/41/16 20/42/16 21/43/16 22/44/16 23/45/16 24/46/16 25/47/16 26/48/16 27/49/16 
# 16 polygons

